<svg width="24" height="28" viewBox="0 0 24 28" fill="none" xmlns="http://www.w3.org/2000/svg">
<path d="M12.9979 0C11.6149 0 10.4669 0.969 10.1229 2.25C9.77091 2.105 9.39991 2 8.99791 2C7.35291 2 5.99791 3.355 5.99791 5V15.75L5.12291 14.875C4.55704 14.3157 3.79351 14.0021 2.99791 14.0021C2.2023 14.0021 1.43877 14.3157 0.872906 14.875C0.313642 15.4409 0 16.2044 0 17C0 17.7956 0.313642 18.5591 0.872906 19.125L7.65391 25.906C8.82991 27.078 10.4549 28 12.3729 28H16.9979C20.8529 28 23.9979 24.855 23.9979 21V9C23.9979 7.355 22.6429 6 20.9979 6C20.6562 6.00427 20.3178 6.06789 19.9979 6.188V5C19.9979 3.355 18.6429 2 16.9979 2C16.5959 2 16.2249 2.105 15.8729 2.25C15.5289 0.969 14.3809 0 12.9979 0ZM12.9979 2C13.5639 2 13.9979 2.434 13.9979 3V13H15.9979V5C15.9979 4.434 16.4319 4 16.9979 4C17.5639 4 17.9979 4.434 17.9979 5V13H19.9979V9C19.9979 8.434 20.4319 8 20.9979 8C21.5639 8 21.9979 8.434 21.9979 9V21C21.9979 23.773 19.7709 26 16.9979 26H12.3729C11.0999 26 10.0059 25.379 9.09191 24.469L2.27891 17.719C2.18415 17.6248 2.10895 17.5127 2.05764 17.3893C2.00633 17.266 1.97991 17.1336 1.97991 17C1.97991 16.8664 2.00633 16.734 2.05764 16.6107C2.10895 16.4873 2.18415 16.3752 2.27891 16.281C2.37314 16.1862 2.48517 16.111 2.60856 16.0597C2.73195 16.0084 2.86427 15.982 2.99791 15.982C3.13154 15.982 3.26386 16.0084 3.38725 16.0597C3.51064 16.111 3.62267 16.1862 3.71691 16.281L6.27891 18.875L7.99791 20.594V5C7.99791 4.434 8.43191 4 8.99791 4C9.56391 4 9.99791 4.434 9.99791 5V13H11.9979V3C11.9979 2.434 12.4319 2 12.9979 2Z" fill="#EAC4D5"/>
</svg>
