<svg width="21" height="21" viewBox="0 0 21 21" fill="none" xmlns="http://www.w3.org/2000/svg">
<path d="M21 9.99865C20.9983 9.49239 20.8685 8.9948 20.6227 8.55224C20.3768 8.10968 20.0229 7.73656 19.594 7.46765C19.8557 7.02202 19.9957 6.51543 20 5.99865C20 4.35365 18.645 2.99865 17 2.99865H13.344L10.656 0.904649C9.004 -0.372351 6.633 -0.286351 5.063 1.09265L2.375 3.46765C1.62833 4.12333 1.03022 4.93084 0.620644 5.83621C0.211072 6.74158 -0.000523609 7.72395 0 8.71765V13.9986C0 17.8536 3.145 20.9986 7 20.9986H16C17.645 20.9986 19 19.6436 19 17.9986C19 17.4636 18.844 16.9676 18.594 16.5296C19.0229 16.2607 19.3768 15.8876 19.6227 15.4451C19.8685 15.0025 19.9983 14.5049 20 13.9986C20 13.4636 19.844 12.9676 19.594 12.5296C20.0229 12.2607 20.3768 11.8876 20.6227 11.4451C20.8685 11.0025 20.9983 10.5049 21 9.99865V9.99865ZM19 9.99865C19 10.5646 18.566 10.9986 18 10.9986H15V12.9986H17C17.566 12.9986 18 13.4326 18 13.9986C18 14.5646 17.566 14.9986 17 14.9986H15V16.9986H16C16.566 16.9986 17 17.4326 17 17.9986C17 18.5646 16.566 18.9986 16 18.9986H7C4.227 18.9986 2 16.7716 2 13.9986V8.71765C1.99746 8.00833 2.14679 7.30668 2.43794 6.65987C2.7291 6.01305 3.15533 5.43605 3.688 4.96765L6.406 2.59265C6.81553 2.22742 7.34047 2.01787 7.88893 2.00069C8.43738 1.9835 8.97441 2.15978 9.406 2.49865L10.063 2.99865L9 2.99865V4.99865L17 4.99865C17.566 4.99865 18 5.43265 18 5.99865C18 6.56465 17.566 6.99865 17 6.99865H15V8.99865H18C18.566 8.99865 19 9.43265 19 9.99865Z" fill="#EAC4D5"/>
</svg>
