<svg width="28" height="21" viewBox="0 0 28 21" fill="none" xmlns="http://www.w3.org/2000/svg">
<path d="M9.406 0.000331514C8.74971 -0.0063648 8.09633 0.088421 7.469 0.281332H7.438L4.938 1.06233C3.50825 1.50338 2.25737 2.39082 1.36873 3.59458C0.480081 4.79834 0.000402272 6.2551 0 7.75133V13.0313C0 16.8863 3.145 20.0313 7 20.0313H16.906C18.125 20.0583 19.305 19.3433 19.781 18.1563C20.082 17.4023 20.039 16.6093 19.75 15.9063C20.3855 15.579 20.8839 15.0363 21.156 14.3753C21.3041 14.0006 21.375 13.5998 21.3644 13.197C21.3537 12.7942 21.2617 12.3977 21.094 12.0313H25C26.645 12.0313 28 10.6763 28 9.03133C28 7.38633 26.645 6.03133 25 6.03133H23.469L23.875 5.90633C25.449 5.42933 26.352 3.73033 25.875 2.15633C25.398 0.582332 23.699 -0.320668 22.125 0.156332L13.687 2.75033C13.61 2.54505 13.5163 2.34639 13.407 2.15633C12.907 1.32033 11.895 0.375331 10.281 0.0933314C9.981 0.0433314 9.684 0.00333151 9.406 0.000331514V0.000331514ZM23.125 2.03133C23.515 2.07433 23.848 2.34433 23.969 2.75033C24.133 3.28933 23.82 3.83633 23.281 4.00033L16.438 6.06233L16.781 7.18733V8.03133H25C25.566 8.03133 26 8.46533 26 9.03133C26 9.59733 25.566 10.0313 25 10.0313H18.406L15.781 9.00033C15.4144 8.85008 15.0212 8.77558 14.625 8.78133L14.094 4.68733L22.719 2.06233C22.8506 2.0233 22.989 2.01273 23.125 2.03133ZM9.375 2.06233C9.566 2.06233 9.765 2.06233 9.938 2.09333C11.012 2.28133 11.426 2.75033 11.688 3.18733C11.949 3.62533 11.968 3.93733 11.968 3.93733V4.00033L12.813 10.4373C12.8212 10.4692 12.8313 10.5006 12.843 10.5313C12.8735 10.6544 12.879 10.7824 12.8592 10.9077C12.8394 11.033 12.7947 11.153 12.7278 11.2608C12.6609 11.3685 12.5731 11.4618 12.4696 11.535C12.366 11.6083 12.2489 11.6601 12.125 11.6873C11.801 11.7653 11.637 11.7223 11.469 11.6253C11.301 11.5273 11.094 11.3203 10.938 10.8753L9.688 6.03133C9.64926 5.88558 9.57807 5.75047 9.47973 5.63613C9.38139 5.52179 9.25847 5.43117 9.12016 5.37105C8.98184 5.31094 8.83172 5.28288 8.68104 5.28899C8.53035 5.2951 8.38299 5.33522 8.25 5.40633L6.594 6.31233C6.47876 6.37569 6.3772 6.46122 6.29516 6.56399C6.21311 6.66677 6.15221 6.78476 6.11596 6.91117C6.07971 7.03758 6.06883 7.16991 6.08394 7.30054C6.09905 7.43118 6.13985 7.55753 6.204 7.67233C6.26736 7.78731 6.3528 7.88864 6.45542 7.97051C6.55804 8.05237 6.67582 8.11317 6.80199 8.14941C6.92817 8.18564 7.06026 8.19661 7.19068 8.18166C7.3211 8.16672 7.44729 8.12617 7.562 8.06233L8.062 7.78133L9.032 11.4693C9.04027 11.5009 9.05029 11.5319 9.062 11.5623C9.332 12.3363 9.793 12.9573 10.438 13.3443C10.965 13.6603 11.578 13.7813 12.188 13.7193C11.861 14.0243 11.6049 14.3975 11.438 14.8123C11.2185 15.3539 11.1637 15.9482 11.2804 16.5208C11.3971 17.0934 11.6801 17.6188 12.094 18.0313H7C4.227 18.0313 2 15.8043 2 13.0313V7.75033C2 5.55033 3.43 3.61733 5.531 2.96933L8.031 2.21933C8.234 2.15633 8.805 2.06233 9.375 2.06233V2.06233ZM14.813 10.8123C14.887 10.8243 14.957 10.8123 15.031 10.8443L18.75 12.3443C19.273 12.5543 19.523 13.1013 19.313 13.6243C19.102 14.1483 18.523 14.3983 18 14.1873L14.281 12.7193C14.227 12.6993 14.203 12.6523 14.156 12.6253C14.5653 12.108 14.7958 11.4718 14.813 10.8123V10.8123ZM14.188 14.9373C14.32 14.9373 14.461 14.9493 14.594 15.0003L15.937 15.5313L17.25 16.0623L17.375 16.0943C17.898 16.3043 18.148 16.8833 17.938 17.4063C17.8692 17.5846 17.7496 17.7388 17.5941 17.8499C17.4386 17.961 17.254 18.024 17.063 18.0313H17.031C16.8928 18.0372 16.7549 18.0158 16.625 17.9683L13.844 16.8433C13.7202 16.7951 13.6072 16.7227 13.5116 16.6303C13.4161 16.5379 13.3399 16.4275 13.2875 16.3053C13.2351 16.1832 13.2075 16.0519 13.2064 15.919C13.2053 15.7861 13.2306 15.6543 13.281 15.5313C13.3292 15.4116 13.4011 15.3029 13.4923 15.2116C13.5835 15.1204 13.6923 15.0485 13.812 15.0003C13.9316 14.9535 14.0597 14.932 14.188 14.9373V14.9373Z" fill="#EAC4D5"/>
</svg>
